HIERARCHY
ROOT hip
{
	OFFSET 0.000000 0.000000 0.000000 
	CHANNELS 6 Xposition Yposition Zposition Xrotation Zrotation Yrotation
	JOINT abdomen
	{
		OFFSET 0.000000 3.402643 0.000000 
		CHANNELS 3 Xrotation Zrotation Yrotation
		JOINT chest
		{
			OFFSET 0.000000 8.438565 -0.680529 
			CHANNELS 3 Xrotation Zrotation Yrotation
			JOINT neck
			{
				OFFSET 0.000000 10.207942 -0.272212 
				CHANNELS 3 Xrotation Zrotation Yrotation
				JOINT head
				{
					OFFSET 0.000000 3.130431 0.000000 
					CHANNELS 3 Xrotation Zrotation Yrotation
					End Site
					{
						OFFSET 0.000000 3.130435 0.000000 
					}
				}
			}
			JOINT lCollar
			{
				OFFSET 3.470700 6.669187 -0.816635 
				CHANNELS 3 Yrotation Zrotation Xrotation
				JOINT lShldr
				{
					OFFSET 3.198488 0.000000 0.000000 
					CHANNELS 3 Zrotation Yrotation Xrotation
					JOINT lForeArm
					{
						OFFSET 10.139888 0.000000 0.000000 
						CHANNELS 3 Yrotation Zrotation Xrotation
						JOINT lHand
						{
							OFFSET 8.370511 0.000000 0.000000 
							CHANNELS 3 Zrotation Yrotation Xrotation
							End Site
							{
								OFFSET 4.083176 0.000000 0.000000 
							}
						}
					}
				}
			}
			JOINT rCollar
			{
				OFFSET -3.470700 6.669187 -0.816635 
				CHANNELS 3 Yrotation Zrotation Xrotation
				JOINT rShldr
				{
					OFFSET -3.198488 0.000000 0.000000 
					CHANNELS 3 Zrotation Yrotation Xrotation
					JOINT rForeArm
					{
						OFFSET -10.139888 0.000000 0.000000 
						CHANNELS 3 Yrotation Zrotation Xrotation
						JOINT rHand
						{
							OFFSET -8.370511 0.000000 0.000000 
							CHANNELS 3 Zrotation Yrotation Xrotation
							End Site
							{
								OFFSET -4.083176 0.000000 0.000000 
							}
						}
					}
				}
			}
		}
	}
	JOINT lThigh
	{
		OFFSET 5.308129 -1.633274 1.361059 
		CHANNELS 3 Xrotation Zrotation Yrotation
		JOINT lShin
		{
			OFFSET -2.041588 -20.007561 0.000000 
			CHANNELS 3 Xrotation Zrotation Yrotation
			JOINT lFoot
			{
				OFFSET 0.000000 -19.190928 -1.224953 
				CHANNELS 3 Xrotation Yrotation Zrotation
				End Site
				{
					OFFSET 0.000000 -2.449906 4.627600 
				}
			}
		}
	}
	JOINT rThigh
	{
		OFFSET -5.308129 -1.633274 1.361059 
		CHANNELS 3 Xrotation Zrotation Yrotation
		JOINT rShin
		{
			OFFSET 2.041588 -20.007561 0.000000 
			CHANNELS 3 Xrotation Zrotation Yrotation
			JOINT rFoot
			{
				OFFSET 0.000000 -19.190928 -1.224953 
				CHANNELS 3 Xrotation Yrotation Zrotation
				End Site
				{
					OFFSET 0.000000 -2.449906 4.627600 
				}
			}
		}
	}
}
MOTION
Frames: 15
Frame Time: 0.016667
-0.319347 46.600567 2.998182 -10.823595 -0.029112 6.435546 5.019135 -0.166015 0.136718 14.165097 3.110000 -3.324954 36.136848 -12.193684 -8.784875 -25.661940 0.081065 41.005920 -9.857173 -4.153955 -0.713711 -67.642265 30.370621 6.683788 -51.924828 8.658470 -7.785681 2.394686 -5.451411 -3.574661 3.741839 12.108356 -0.799185 52.340878 -38.590763 21.690281 64.743164 -2.895874 -2.132229 -3.170967 0.544906 -3.485848 18.881033 16.996889 0.948764 -7.001850 -7.168145 27.530441 -2.400778 -1.138420 -0.417057 21.268375 -10.633391 -0.643170 -3.638288 11.795469 -26.427164 -13.671676 1.826396 -5.851544 
-0.313188 46.596653 2.994525 -10.887570 -0.077643 6.367182 5.019135 -0.166015 0.136718 14.315747 3.168925 -3.188438 36.096245 -12.553104 -9.017670 -25.872557 0.780344 41.078903 -9.709085 -4.139540 -0.694823 -67.592690 30.288361 6.691979 -52.108093 8.532711 -7.618772 2.394075 -5.441671 -3.574308 3.483671 11.998072 -0.738101 51.990425 -38.327919 21.864267 64.830162 -2.337516 -1.794756 -3.162057 0.548502 -3.487485 18.919640 17.074316 0.970632 -6.926916 -7.293241 27.541622 -2.472344 -1.143824 -0.430719 21.360947 -10.621256 -0.623102 -3.696079 11.775176 -26.308201 -13.662338 1.825955 -5.840637 
-0.314141 46.592014 2.971553 -10.743450 -0.097032 6.484383 5.019135 -0.166015 0.136718 14.182230 3.217461 -3.256687 36.141167 -12.722589 -9.142645 -26.061237 1.088864 41.122437 -9.681096 -4.187077 -0.704482 -67.498146 30.251017 6.731538 -52.185539 8.464620 -7.546341 2.394075 -5.441671 -3.574308 3.362493 12.010457 -0.719115 50.992531 -37.895832 22.386580 64.414909 -0.987635 -1.047673 -3.172879 0.499545 -3.484971 18.661739 17.137665 0.952587 -6.833742 -7.314041 27.338047 -2.490879 -1.142918 -0.451648 21.184580 -10.601323 -0.624097 -3.717011 11.796103 -26.448105 -13.643339 1.859482 -5.844887 
-0.315097 46.587379 2.948582 -10.599409 -0.116411 6.601569 5.019135 -0.166015 0.136718 14.057807 3.265954 -3.335234 36.187477 -12.881905 -9.279353 -26.265640 1.389641 41.167221 -9.642643 -4.236380 -0.704560 -67.392006 30.215719 6.766705 -52.271404 8.407314 -7.472440 2.394075 -5.441671 -3.574308 3.248871 12.013434 -0.688547 50.011375 -37.469353 22.894381 63.969856 0.351804 -0.289319 -3.183690 0.450594 -3.482551 18.382942 17.191364 0.943638 -6.742909 -7.332662 27.135155 -2.501493 -1.118921 -0.452579 21.019173 -10.581923 -0.635310 -3.750574 11.813090 -26.571272 -13.642285 1.858240 -5.867667 
-0.325086 46.586754 2.945747 -10.601933 -0.135780 6.718754 5.019135 -0.166015 0.136718 14.065591 3.275034 -3.530784 36.324421 -13.068834 -9.446870 -26.418053 1.643984 41.290298 -9.563348 -4.199902 -0.695120 -67.422188 30.230742 6.771940 -52.282906 8.483194 -7.541479 2.394075 -5.441671 -3.574308 3.394364 12.048579 -0.728633 49.956333 -37.470825 22.918224 63.949593 0.390485 -0.278791 -3.183690 0.450594 -3.482551 18.336020 17.242212 0.941030 -6.696476 -7.352859 27.111958 -2.458981 -1.141487 -0.450558 21.043028 -10.486831 -0.620757 -3.796325 11.718944 -26.660395 -13.700620 1.864573 -5.875588 
-0.335071 46.586140 2.942911 -10.614328 -0.155136 6.845705 5.019135 -0.166015 0.136718 14.062984 3.284034 -3.736081 36.463123 -13.245476 -9.623979 -26.585592 1.890048 41.414326 -9.474418 -4.173278 -0.685692 -67.442902 30.238836 6.774554 -52.304127 8.560406 -7.608779 2.403254 -5.431322 -3.574880 3.537686 12.074370 -0.759174 49.912605 -37.476093 22.930202 63.919567 0.428979 -0.258116 -3.183690 0.450594 -3.482551 18.284246 17.298149 0.950661 -6.669082 -7.353407 27.089472 -2.422166 -1.149052 -0.453337 21.061977 -10.378887 -0.613685 -3.818896 11.625272 -26.718979 -13.749487 1.842681 -5.865306 
-0.337184 46.591827 2.965696 -10.672842 -0.155146 6.816409 5.019135 -0.166015 0.136718 14.024623 3.293219 -3.882883 36.440372 -13.564972 -9.838741 -26.586525 2.183703 41.619156 -9.451157 -4.421102 -0.724154 -67.241638 30.402750 6.943043 -52.271351 8.763700 -7.814243 2.403254 -5.431322 -3.574880 3.897662 12.172067 -0.839221 49.977051 -37.677734 22.958921 63.894413 0.213613 -0.393671 -3.176011 0.460686 -3.477007 18.401831 17.289047 0.958349 -6.695379 -7.352514 27.150898 -2.450157 -1.137573 -0.448857 21.126425 -10.357849 -0.610323 -3.741601 11.625849 -26.639820 -13.759909 1.844985 -5.852810 
-0.339294 46.597511 2.988477 -10.730227 -0.145455 6.796878 5.019135 -0.166015 0.136718 13.986897 3.292637 -4.029685 36.421864 -13.893512 -10.053831 -26.595098 2.475473 41.825317 -9.428109 -4.659195 -0.763377 -67.039520 30.566008 7.112481 -52.250137 8.950841 -8.012162 2.403254 -5.431322 -3.574880 4.267664 12.268652 -0.919173 50.029995 -37.875683 22.987093 63.859890 -0.021469 -0.528857 -3.176011 0.460686 -3.477007 18.519186 17.279747 0.966023 -6.723053 -7.350534 27.202475 -2.494529 -1.111376 -0.449394 21.199718 -10.341011 -0.606583 -3.657177 11.628722 -26.539919 -13.779757 1.840827 -5.844136 
-0.325208 46.592915 2.996881 -10.803704 -0.194017 6.601590 5.019135 -0.166015 0.136718 14.095729 3.419317 -4.020494 36.219433 -14.345492 -10.295358 -26.476440 2.753849 42.130226 -9.261481 -4.672738 -0.754130 -67.105705 30.529535 7.083019 -52.314945 8.987429 -8.005626 2.403254 -5.431322 -3.574880 4.544959 11.997646 -0.956892 49.962448 -37.894901 23.040478 63.811268 0.475734 -0.224617 -3.176011 0.460686 -3.477007 18.730930 17.255112 0.968904 -6.871883 -7.285834 27.388956 -2.493872 -1.116186 -0.440814 21.177656 -10.388412 -0.618756 -3.431782 11.666879 -26.246843 -13.837920 1.831356 -5.849302 
-0.311125 46.588322 3.005279 -10.875761 -0.232912 6.406277 5.019135 -0.166015 0.136718 14.194919 3.536216 -4.021076 36.025425 -14.805726 -10.551873 -26.357929 3.036623 42.436825 -9.085083 -4.686351 -0.744888 -67.172302 30.489786 7.062831 -52.381142 9.014343 -8.000587 2.403254 -5.431322 -3.574880 4.821873 11.726272 -0.994617 49.885948 -37.905651 23.108311 63.782719 0.944021 0.088713 -3.174775 0.454190 -3.484194 18.942802 17.213638 0.964806 -6.984386 -7.214895 27.590990 -2.492173 -1.115981 -0.451276 21.138407 -10.426474 -0.637729 -3.216086 11.707482 -25.935780 -13.916199 1.811719 -5.837936 
-0.295251 46.577351 2.966367 -10.717245 -0.310683 6.181708 5.019135 -0.166015 0.136718 14.121152 3.662413 -4.119136 36.037838 -15.243836 -10.846797 -26.327190 3.148552 42.795353 -8.837405 -4.596370 -0.715750 -67.376419 30.452082 6.979392 -52.486351 9.127433 -8.039464 2.402643 -5.421581 -3.574526 5.340545 11.446758 -1.072037 50.725311 -38.239170 22.619841 64.050163 0.236131 -0.331438 -3.163492 0.480602 -3.479423 18.770029 17.196663 0.958245 -6.942367 -7.235022 27.840521 -2.487480 -1.128602 -0.445695 20.710447 -10.495774 -0.635996 -2.826621 11.747663 -25.686968 -14.112350 1.853204 -5.838853 
-0.279378 46.566380 2.927450 -10.566871 -0.378803 5.957159 5.019135 -0.166015 0.136718 14.045583 3.798259 -4.227581 36.055008 -15.680762 -11.144909 -26.294390 3.258363 43.163277 -8.589168 -4.517364 -0.677721 -67.580360 30.414181 6.896243 -52.600300 9.249839 -8.082050 2.402032 -5.411841 -3.573251 5.868170 11.165673 -1.149260 51.583519 -38.571022 22.114738 64.327484 -0.491151 -0.751834 -3.169272 0.515862 -3.485839 18.600578 17.175200 0.937122 -6.873008 -7.224714 28.105932 -2.476058 -1.136723 -0.427817 20.285286 -10.552144 -0.621880 -2.446210 11.803715 -25.439613 -14.316765 1.860283 -5.857683 
-0.258638 46.568806 2.869949 -10.344853 -0.320638 5.761793 5.019135 -0.166015 0.136718 13.927748 3.798211 -4.237324 36.278172 -16.093473 -11.511937 -26.569056 3.394315 43.415730 -8.560230 -4.938764 -0.736301 -67.149452 30.483366 7.112803 -52.722908 9.395637 -8.205693 2.401421 -5.402101 -3.572898 6.189452 11.307527 -1.228648 51.197868 -38.546986 22.353754 64.227913 -0.385597 -0.709018 -3.163966 0.503141 -3.486612 18.229471 17.048265 0.936653 -6.594550 -7.301395 28.160555 -2.566853 -1.117802 -0.452737 19.782341 -10.711031 -0.638677 -2.083514 11.772335 -25.192427 -14.550680 1.836886 -5.860144 
-0.237896 46.571224 2.812447 -10.132998 -0.262429 5.566437 5.019135 -0.166015 0.136718 13.799499 3.798115 -4.256812 36.514652 -16.494980 -11.884929 -26.851631 3.528410 43.678204 -8.542068 -5.369855 -0.794898 -66.718353 30.547823 7.344643 -52.842937 9.559505 -8.332619 2.411521 -5.391342 -3.583176 6.520650 11.438554 -1.307899 50.814938 -38.518604 22.573696 64.128143 -0.270286 -0.666125 -3.176483 0.483226 -3.484194 17.857740 16.920649 0.937085 -6.329186 -7.381839 28.236067 -2.686912 -1.110036 -0.461617 19.290958 -10.855381 -0.652326 -1.703657 11.744080 -24.971975 -14.805297 1.841144 -5.847525 
-0.210797 46.577843 2.758561 -9.898155 -0.155495 5.634771 5.019135 -0.166015 0.136718 13.817413 3.857456 -4.071676 36.562710 -17.074259 -12.300800 -27.285114 3.959760 43.803585 -8.752835 -6.117914 -0.931837 -65.841530 30.511230 7.673887 -53.455906 9.276026 -7.935058 2.399589 -5.372880 -3.571838 5.980096 11.906796 -1.242616 49.615852 -38.072716 23.258484 64.238533 0.083439 -0.485217 -3.176483 0.483226 -3.484194 17.317574 16.780317 0.922894 -5.871553 -7.458356 28.007021 -2.899501 -1.113015 -0.454552 18.924585 -10.965726 -0.648441 -1.499771 11.657450 -24.989485 -14.932271 1.841374 -5.847854 
